<?xml version="1.0" encoding="UTF-8"?>
<svg id="Layer_1" xmlns="http://www.w3.org/2000/svg" version="1.1" viewBox="0 0 85.47 49.09">
  <!-- Generator: Adobe Illustrator 30.3.0, SVG Export Plug-In . SVG Version: 2.1.3 Build 182)  -->
  <defs>
    <style>
      .st0 {
        fill: #3f4040;
      }
    </style>
  </defs>
  <g>
    <path class="st0" d="M40.57,21.42c0,5.04-3.95,7.98-11.51,7.98h-14.61V0h13.77c7.05,0,10.83,2.98,10.83,7.64,0,3.02-1.51,5.25-3.78,6.47,3.15,1.01,5.29,3.49,5.29,7.31ZM19.91,4.28v8.1h7.73c3.78,0,5.92-1.34,5.92-4.03s-2.14-4.07-5.92-4.07h-7.73ZM35.07,20.87c0-2.94-2.23-4.24-6.34-4.24h-8.82v8.48h8.82c4.12,0,6.34-1.3,6.34-4.24Z"/>
    <path class="st0" d="M71.02,10.46c0,6.47-4.79,10.46-12.51,10.46h-6.63v8.48h-5.46V0h12.09c7.73,0,12.51,3.95,12.51,10.46ZM65.51,10.46c0-3.7-2.48-5.84-7.26-5.84h-6.38v11.67h6.38c4.79,0,7.26-2.14,7.26-5.84Z"/>
  </g>
  <g>
    <path class="st0" d="M7.18,44.27c0,1.49-1.08,2.33-3.25,2.33H0v-8.82h3.68c1.89,0,3.04.79,3.04,2.26,0,1.05-.59,1.73-1.47,2.02,1.25.24,1.94,1,1.94,2.22ZM.64,38.33v3.52h3.01c1.53,0,2.41-.59,2.41-1.76s-.88-1.75-2.41-1.75H.64ZM6.54,44.21c0-1.26-.92-1.81-2.61-1.81H.64v3.64h3.29c1.69,0,2.61-.55,2.61-1.83Z"/>
    <path class="st0" d="M15.03,40.02v6.58h-.6v-1.41c-.43.92-1.32,1.46-2.48,1.46-1.68,0-2.75-.95-2.75-2.79v-3.84h.63v3.79c0,1.49.79,2.27,2.17,2.27,1.49,0,2.41-1,2.41-2.56v-3.5h.63Z"/>
    <path class="st0" d="M17.5,37.91c0-.28.23-.52.52-.52s.52.23.52.5-.23.52-.52.52-.52-.23-.52-.5ZM17.7,40.02h.63v6.58h-.63v-6.58Z"/>
    <path class="st0" d="M20.99,37.24h.63v9.35h-.63v-9.35Z"/>
    <path class="st0" d="M30.12,37.24v9.35h-.62v-1.55c-.52,1.02-1.51,1.6-2.7,1.6-1.85,0-3.25-1.37-3.25-3.34s1.4-3.34,3.25-3.34c1.17,0,2.16.58,2.68,1.58v-4.3h.63ZM29.49,43.31c0-1.65-1.13-2.77-2.65-2.77s-2.65,1.12-2.65,2.77,1.13,2.77,2.65,2.77,2.65-1.12,2.65-2.77Z"/>
    <path class="st0" d="M32.58,37.91c0-.28.23-.52.52-.52s.52.23.52.5-.23.52-.52.52-.52-.23-.52-.5ZM32.78,40.02h.63v6.58h-.63v-6.58Z"/>
    <path class="st0" d="M41.95,42.75v3.84h-.63v-3.79c0-1.49-.79-2.27-2.13-2.27-1.55,0-2.5,1-2.5,2.56v3.5h-.63v-6.58h.61v1.42c.44-.92,1.36-1.47,2.61-1.47,1.6,0,2.67.95,2.67,2.79Z"/>
    <path class="st0" d="M50.48,40.02v5.87c0,2.21-1.07,3.2-3.19,3.2-1.2,0-2.34-.38-3.01-1.05l.34-.48c.66.6,1.6.96,2.66.96,1.75,0,2.57-.81,2.57-2.56v-1.11c-.54.96-1.55,1.5-2.74,1.5-1.87,0-3.28-1.32-3.28-3.2s1.41-3.19,3.28-3.19c1.21,0,2.23.55,2.76,1.54v-1.49h.61ZM49.86,43.16c0-1.55-1.13-2.62-2.7-2.62s-2.68,1.07-2.68,2.62,1.13,2.63,2.68,2.63,2.7-1.08,2.7-2.63Z"/>
    <path class="st0" d="M60.07,40.75c0,1.85-1.34,2.96-3.55,2.96h-2.52v2.89h-.64v-8.82h3.16c2.22,0,3.55,1.11,3.55,2.97ZM59.41,40.75c0-1.52-1.01-2.39-2.9-2.39h-2.52v4.78h2.52c1.89,0,2.9-.87,2.9-2.38Z"/>
    <path class="st0" d="M67.92,40.02v6.58h-.6v-1.41c-.43.92-1.32,1.46-2.48,1.46-1.68,0-2.75-.95-2.75-2.79v-3.84h.63v3.79c0,1.49.79,2.27,2.17,2.27,1.49,0,2.41-1,2.41-2.56v-3.5h.63Z"/>
    <path class="st0" d="M70.58,37.24h.63v9.35h-.63v-9.35Z"/>
    <path class="st0" d="M72.9,45.8l.29-.5c.5.43,1.4.79,2.37.79,1.39,0,1.94-.49,1.94-1.24,0-1.92-4.36-.5-4.36-3.09,0-1,.83-1.8,2.5-1.8.83,0,1.74.25,2.26.64l-.29.5c-.55-.4-1.27-.59-1.98-.59-1.29,0-1.85.53-1.85,1.24,0,1.98,4.36.58,4.36,3.09,0,1.07-.92,1.8-2.6,1.8-1.08,0-2.12-.37-2.63-.84Z"/>
    <path class="st0" d="M85.45,43.46h-5.66c.06,1.56,1.21,2.62,2.79,2.62.83,0,1.6-.3,2.1-.92l.37.42c-.58.71-1.49,1.07-2.48,1.07-1.99,0-3.39-1.39-3.39-3.34s1.35-3.34,3.15-3.34,3.14,1.36,3.14,3.31c0,.05-.01.11-.01.18ZM79.81,42.97h5.04c-.09-1.42-1.12-2.45-2.52-2.45s-2.42,1.01-2.52,2.45Z"/>
  </g>
</svg>